<svg width="29" height="29" viewBox="0 0 29 29" fill="none" xmlns="http://www.w3.org/2000/svg">
<path opacity="0.4" d="M25.8958 10.0288V4.68481C25.8958 3.02512 25.1425 2.35419 23.2709 2.35419H18.5155C16.644 2.35419 15.8906 3.02512 15.8906 4.68481V10.017C15.8906 11.6885 16.644 12.3476 18.5155 12.3476H23.2709C25.1425 12.3594 25.8958 11.6885 25.8958 10.0288Z" fill="#FFB61D"/>
<path d="M25.8958 23.2709V18.5155C25.8958 16.644 25.1425 15.8906 23.2709 15.8906H18.5155C16.644 15.8906 15.8906 16.644 15.8906 18.5155V23.2709C15.8906 25.1425 16.644 25.8958 18.5155 25.8958H23.2709C25.1425 25.8958 25.8958 25.1425 25.8958 23.2709Z" fill="#FFB61D"/>
<path d="M12.3593 10.0288V4.68481C12.3593 3.02512 11.606 2.35419 9.73444 2.35419H4.97902C3.10746 2.35419 2.35413 3.02512 2.35413 4.68481V10.017C2.35413 11.6885 3.10746 12.3476 4.97902 12.3476H9.73444C11.606 12.3594 12.3593 11.6885 12.3593 10.0288Z" fill="#FFB61D"/>
<path opacity="0.4" d="M12.3593 23.2709V18.5155C12.3593 16.644 11.606 15.8906 9.73444 15.8906H4.97902C3.10746 15.8906 2.35413 16.644 2.35413 18.5155V23.2709C2.35413 25.1425 3.10746 25.8958 4.97902 25.8958H9.73444C11.606 25.8958 12.3593 25.1425 12.3593 23.2709Z" fill="#FFB61D"/>
</svg>
